<svg xmlns="http://www.w3.org/2000/svg" viewBox="0 0 512 512" width="32" height="32">
  <defs>
    <linearGradient id="stickGradient" x1="0%" y1="0%" x2="100%" y2="0%">
      <stop offset="0%" style="stop-color:#ef5350;stop-opacity:1" />
      <stop offset="100%" style="stop-color:#e53935;stop-opacity:1" />
    </linearGradient>
    <linearGradient id="bladeGradient" x1="0%" y1="0%" x2="100%" y2="0%">
      <stop offset="0%" style="stop-color:#c9a068;stop-opacity:1" />
      <stop offset="100%" style="stop-color:#a67c52;stop-opacity:1" />
    </linearGradient>
  </defs>

  <!-- Hockey stick shaft -->
  <path fill="url(#stickGradient)" d="M 80 50 Q 85 45 95 50 L 260 365 Q 265 375 255 380 L 245 385 Q 235 390 230 380 L 65 65 Q 70 50 80 50 Z"/>

  <!-- Stick grip area (darker red section) -->
  <path fill="#c0392b" d="M 240 360 L 260 365 L 265 375 L 250 385 Q 245 382 245 375 Z"/>

  <!-- Hockey blade -->
  <path fill="url(#bladeGradient)" d="M 250 385 Q 255 380 265 385 L 440 425 Q 460 428 465 445 Q 467 460 450 465 L 265 425 Q 250 420 245 410 L 245 390 Q 245 385 250 385 Z"/>

  <!-- Blade edge detail -->
  <ellipse fill="#8b6f47" cx="355" cy="445" rx="95" ry="25" opacity="0.6"/>

  <!-- Hockey puck -->
  <!-- Top surface -->
  <ellipse fill="#546e7a" cx="360" cy="260" rx="45" ry="18"/>

  <!-- Side of puck -->
  <path fill="#37474f" d="M 315 260 L 315 285 Q 315 295 360 300 Q 405 295 405 285 L 405 260 Q 405 268 360 273 Q 315 268 315 260 Z"/>

  <!-- Bottom edge -->
  <ellipse fill="#263238" cx="360" cy="285" rx="45" ry="15"/>
</svg>
